<svg width="24" height="24" viewBox="0 0 24 24" fill="none" xmlns="http://www.w3.org/2000/svg">
<path d="M4.33777 11.3603L4.33775 11.3603L4.34068 11.3632L12.1648 19.1873L12.5183 19.5409L12.8719 19.1873L20.696 11.3632C21.4815 10.5777 21.9228 9.51234 21.9228 8.40145C21.9228 7.29057 21.4815 6.22518 20.696 5.43966C20.307 5.05071 19.8453 4.74218 19.3371 4.53169C18.8289 4.32119 18.2842 4.21285 17.7342 4.21285C16.6233 4.21285 15.5579 4.65415 14.7724 5.43966L12.5182 7.69381L10.2642 5.44081L10.2642 5.4408L10.2614 5.43807C9.47389 4.66308 8.41203 4.23068 7.30714 4.23505C6.20225 4.23941 5.14385 4.6802 4.36248 5.46139C3.58111 6.24258 3.14007 7.30087 3.13544 8.40576C3.13082 9.51065 3.56297 10.5726 4.33777 11.3603ZM12.1648 5.27633L12.5183 5.62988L12.8719 5.27633L13.7411 4.40713L13.7426 4.40557C14.2662 3.87742 14.8889 3.45787 15.575 3.17102C16.2612 2.88418 16.9972 2.73567 17.7409 2.73405C18.4845 2.73242 19.2212 2.87769 19.9086 3.16153C20.596 3.44537 21.2205 3.86219 21.7464 4.38805C22.2722 4.9139 22.689 5.53845 22.9729 6.22583C23.2567 6.91321 23.402 7.64988 23.4004 8.39355C23.3987 9.13723 23.2502 9.87326 22.9634 10.5594C22.6765 11.2455 22.257 11.8682 21.7288 12.3918L21.7273 12.3933L13.0352 21.0867L13.035 21.0868C12.9673 21.1546 12.8868 21.2084 12.7983 21.2452C12.7097 21.2819 12.6148 21.3008 12.5189 21.3008C12.4231 21.3008 12.3282 21.2819 12.2396 21.2452C12.1511 21.2084 12.0706 21.1546 12.0029 21.0868L12.0026 21.0866L3.30934 12.3945L3.30937 12.3945L3.30483 12.3901C2.76949 11.8682 2.34311 11.2452 2.05041 10.5573C1.7577 9.86937 1.60452 9.13016 1.59973 8.38256C1.59494 7.63495 1.73864 6.89384 2.0225 6.20221C2.30636 5.51058 2.72473 4.8822 3.25334 4.35351C3.78195 3.82483 4.41027 3.40637 5.10186 3.12241C5.79345 2.83845 6.53455 2.69465 7.28215 2.69933C8.02975 2.70401 8.76898 2.8571 9.45696 3.1497C10.1449 3.44231 10.768 3.8686 11.2899 4.40387L11.6433 4.76628L11.649 4.76057L12.1648 5.27633Z" fill="#278BED" stroke="black"/>
</svg>
