<svg width="16" height="17" viewBox="0 0 16 17" fill="none" xmlns="http://www.w3.org/2000/svg">
<path d="M8 0C6.56131 0 5.22434 0.314816 3.9891 0.944445C2.78292 1.54889 1.8238 2.3737 1.11172 3.41889C0.370572 4.50185 0 5.67296 0 6.93222C0 8.27963 0.530427 9.70889 1.59128 11.22C2.39055 12.3659 3.45867 13.5244 4.79564 14.6956C5.52225 15.3252 6.35059 15.98 7.28065 16.66L7.54223 16.8489C7.58583 16.8867 7.65123 16.9213 7.73842 16.9528C7.82561 16.9843 7.91644 17 8.0109 17C8.10536 17 8.18529 16.9906 8.25068 16.9717C8.31608 16.9528 8.3851 16.9119 8.45777 16.8489L8.71935 16.66C9.64941 15.98 10.4777 15.3252 11.2044 14.6956C12.5413 13.5244 13.6094 12.3659 14.4087 11.22C15.4696 9.70889 16 8.27963 16 6.93222C16 5.67296 15.6294 4.50185 14.8883 3.41889C14.1762 2.3737 13.2171 1.54889 12.0109 0.944445C10.7757 0.314816 9.43869 0 8 0ZM8 15.5078C7.22979 14.9663 6.44505 14.343 5.64578 13.6378C4.46866 12.5674 3.53134 11.5222 2.83379 10.5022C1.91826 9.18 1.46049 7.96482 1.46049 6.85667C1.46049 5.82407 1.7584 4.86704 2.35422 3.98556C2.92098 3.12926 3.69846 2.45556 4.68665 1.96445C5.70391 1.44815 6.80836 1.19 8 1.19C9.19164 1.19 10.2961 1.45445 11.3134 1.98333C12.3015 2.48704 13.0863 3.17333 13.6676 4.04222C14.2489 4.91111 14.5395 5.84926 14.5395 6.85667C14.5395 8.00259 14.0817 9.23667 13.1662 10.5589C12.4687 11.5663 11.5313 12.5989 10.3542 13.6567C9.58401 14.3367 8.79927 14.9537 8 15.5078ZM8 3.92889C7.37511 3.92889 6.80109 4.06426 6.27793 4.335C5.75477 4.60574 5.33697 4.97093 5.02452 5.43056C4.71208 5.89019 4.55586 6.39074 4.55586 6.93222C4.55586 7.4737 4.71208 7.97426 5.02452 8.43389C5.33697 8.89352 5.75477 9.25556 6.27793 9.52C6.80109 9.78444 7.37511 9.91667 8 9.91667C8.62489 9.91667 9.20254 9.7813 9.73297 9.51056C10.2634 9.23982 10.6812 8.87778 10.9864 8.42445C11.2916 7.97111 11.4441 7.4737 11.4441 6.93222C11.4441 6.39074 11.2916 5.89019 10.9864 5.43056C10.6812 4.97093 10.2634 4.60574 9.73297 4.335C9.20254 4.06426 8.62489 3.92889 8 3.92889ZM8 8.65111C7.44777 8.65111 6.97548 8.48111 6.58311 8.14111C6.19074 7.80111 5.99455 7.39815 5.99455 6.93222C5.99455 6.61741 6.08538 6.32778 6.26703 6.06333C6.44868 5.79889 6.6921 5.58796 6.99728 5.43056C7.30245 5.27315 7.63669 5.19444 8 5.19444C8.36331 5.19444 8.69755 5.27315 9.00272 5.43056C9.3079 5.58796 9.55132 5.79889 9.73297 6.06333C9.91462 6.32778 10.0054 6.61741 10.0054 6.93222C10.0054 7.39815 9.80926 7.80111 9.41689 8.14111C9.02452 8.48111 8.55223 8.65111 8 8.65111Z" fill="#DE0909"/>
</svg>
