<svg width="22" height="18" viewBox="0 0 22 18" fill="none" xmlns="http://www.w3.org/2000/svg">
<g clip-path="url(#clip0_950_2318)">
<path d="M0.88147 11.1351C1.03532 10.9247 1.2251 10.7484 1.5721 10.8265C1.93483 10.9082 1.98199 11.1471 1.98087 11.4017C1.97919 11.8098 1.97189 12.218 1.98312 12.6257C2.02018 13.9829 3.24142 14.947 4.95172 14.9671C5.71591 14.976 6.48067 14.9684 7.35379 14.9684C7.13593 14.7925 6.97197 14.6683 6.81981 14.5353C6.55141 14.2999 6.53625 14.0811 6.76422 13.8944C6.98152 13.7158 7.29876 13.718 7.57165 13.9266C8.05677 14.2968 8.5346 14.6732 9.00008 15.0586C9.28195 15.2917 9.28869 15.4976 9.01636 15.7236C8.54246 16.117 8.05228 16.4988 7.56098 16.8788C7.32347 17.0628 7.0517 17.103 6.78331 16.9173C6.53738 16.7467 6.54187 16.5028 6.80352 16.2791C6.95513 16.1496 7.13761 16.0433 7.38523 15.8714C7.17186 15.85 7.07697 15.8325 6.98264 15.8325C6.32233 15.8299 5.66201 15.8361 5.00114 15.8299C2.91126 15.8107 1.33459 14.7576 0.946041 13.129C0.937057 13.0902 0.903368 13.0553 0.88147 13.0187C0.88147 12.3908 0.88147 11.763 0.88147 11.1351Z" fill="#3BB77E"/>
<path d="M21.1743 6.86454C21.0137 7.09005 20.8037 7.26288 20.4472 7.16508C20.117 7.07487 20.0727 6.8431 20.0744 6.60017C20.0777 6.1929 20.0833 5.78518 20.0727 5.37791C20.0362 4.00873 18.8088 3.04771 17.076 3.03208C16.3169 3.02539 15.5577 3.03075 14.7986 3.03075C14.7767 3.05799 14.7553 3.08567 14.7334 3.11291C14.9064 3.23438 15.0934 3.34513 15.2495 3.4791C15.5134 3.70551 15.5218 3.94576 15.2764 4.11635C15.0125 4.29989 14.7374 4.26863 14.4987 4.08465C14.0074 3.70551 13.5223 3.32146 13.0439 2.93205C12.8126 2.74405 12.7547 2.5154 13.0012 2.31713C13.574 1.85672 14.168 1.41238 14.7531 0.961792C14.8587 0.961792 14.9642 0.961792 15.0703 0.961792C15.5487 1.25162 15.5695 1.46463 15.1534 1.80223C15.0237 1.90762 14.8929 2.01212 14.6975 2.16931C15.5515 2.16931 16.2888 2.16351 17.026 2.17065C18.4163 2.1836 19.5954 2.58552 20.3764 3.50723C20.7459 3.94353 20.9143 4.48656 21.1743 4.98091C21.1743 5.60834 21.1743 6.23666 21.1743 6.86454Z" fill="#3BB77E"/>
<path d="M1.67429 0.961426C1.71977 0.996705 1.76581 1.03109 1.80961 1.06682C2.04712 1.25973 2.06677 1.50133 1.85902 1.67504C1.65464 1.84608 1.28967 1.84563 1.08697 1.67415C0.884269 1.50267 0.905606 1.25125 1.13975 1.06548C1.18467 1.02975 1.23183 0.995812 1.27787 0.961426C1.40983 0.961426 1.54178 0.961426 1.67429 0.961426Z" fill="#3BB77E"/>
<path d="M8.33305 0.961426C8.39144 1.01323 8.45377 1.06324 8.50823 1.11772C8.71149 1.32359 8.69409 1.53259 8.45602 1.70005C8.23254 1.85724 7.97033 1.84519 7.74348 1.68844C7.53629 1.54509 7.53461 1.26599 7.72888 1.09852C7.78952 1.04627 7.86701 1.00653 7.9372 0.961426C8.06859 0.961426 8.20054 0.961426 8.33305 0.961426Z" fill="#3BB77E"/>
<path d="M3.89387 0.961384C3.94722 1.00425 4.00224 1.04534 4.05334 1.09C4.27344 1.28202 4.274 1.54148 4.04098 1.69599C3.80909 1.84961 3.55866 1.84738 3.32957 1.69242C3.10442 1.54014 3.11003 1.26728 3.32789 1.08374C3.38011 1.03953 3.44131 1.00202 3.49802 0.960938C3.62941 0.961384 3.76136 0.961384 3.89387 0.961384Z" fill="#3BB77E"/>
<path d="M6.1135 0.961426C6.16572 1.00474 6.21962 1.04717 6.26959 1.09182C6.48857 1.28608 6.48801 1.54464 6.25275 1.69782C6.01973 1.8501 5.76762 1.84697 5.53909 1.69201C5.31674 1.54107 5.32573 1.26197 5.54358 1.08245C5.59693 1.03868 5.65925 1.00162 5.71709 0.961426C5.84904 0.961426 5.98099 0.961426 6.1135 0.961426Z" fill="#3BB77E"/>
<path d="M10.4728 0.961426C10.5885 1.05699 10.7951 1.15077 10.7991 1.24902C10.8052 1.41112 10.7373 1.64825 10.5941 1.7197C10.447 1.79338 10.127 1.76123 9.96357 1.67728C9.73505 1.55938 9.73505 1.3352 9.89732 1.14809C9.96189 1.07396 10.0686 1.02305 10.1562 0.961426C10.2617 0.961426 10.3673 0.961426 10.4728 0.961426Z" fill="#3BB77E"/>
<path d="M16.181 9.17911C17.5814 9.17911 18.9817 9.17777 20.3815 9.18C20.952 9.1809 21.1115 9.30504 21.112 9.75786C21.1143 11.9871 21.1143 14.216 21.112 16.4452C21.1115 16.9061 20.9408 17.0374 20.3529 17.0378C17.5522 17.0387 14.752 17.0387 11.9513 17.0378C11.3724 17.0374 11.191 16.8954 11.191 16.4394C11.1893 14.2209 11.1893 12.0023 11.191 9.78376C11.1916 9.31933 11.3628 9.18134 11.9401 9.18045C13.3539 9.17777 14.7672 9.17911 16.181 9.17911ZM12.3039 16.1514C14.8946 16.1514 17.4573 16.1514 20.0205 16.1514C20.0205 14.1003 20.0205 12.0782 20.0205 10.0405C17.4376 10.0405 14.8834 10.0405 12.3039 10.0405C12.3039 12.0809 12.3039 14.1043 12.3039 16.1514Z" fill="#3BB77E"/>
<path d="M3.67041 7.98544C3.96912 7.9783 4.20439 8.15201 4.21337 8.38557C4.22235 8.61868 4.00056 8.80624 3.70522 8.81472C3.40763 8.82321 3.17405 8.64994 3.16506 8.4137C3.15608 8.17568 3.37282 7.99214 3.67041 7.98544Z" fill="#3BB77E"/>
<path d="M1.9988 3.13846C2.00161 3.37247 1.77364 3.5569 1.47886 3.55868C1.18408 3.56047 0.952743 3.37961 0.951059 3.14516C0.949374 2.91384 1.18239 2.7236 1.46988 2.72181C1.7568 2.72003 1.99656 2.90893 1.9988 3.13846Z" fill="#3BB77E"/>
<path d="M1.99888 4.90237C1.99439 5.13682 1.76417 5.31321 1.46602 5.30964C1.16843 5.30607 0.946081 5.12387 0.951134 4.88808C0.956188 4.65542 1.19201 4.47322 1.48399 4.47724C1.7754 4.48126 2.00281 4.66882 1.99888 4.90237Z" fill="#3BB77E"/>
<path d="M10.858 4.8872C10.8642 5.11093 10.6228 5.30429 10.3336 5.30831C10.0411 5.31233 9.79737 5.12969 9.79231 4.90194C9.78726 4.67687 10.027 4.48216 10.3151 4.47725C10.5981 4.47278 10.8518 4.66436 10.858 4.8872Z" fill="#3BB77E"/>
<path d="M1.99938 6.64399C2.00275 6.87977 1.77928 7.06153 1.48112 7.06421C1.18297 7.06689 0.953883 6.8896 0.951076 6.65426C0.948268 6.41981 1.17455 6.23537 1.46821 6.2327C1.76243 6.23002 1.99601 6.41088 1.99938 6.64399Z" fill="#3BB77E"/>
<path d="M9.79239 6.63683C9.80194 6.40953 10.0501 6.22688 10.3404 6.23358C10.6285 6.23983 10.8671 6.43766 10.8575 6.66139C10.8474 6.88914 10.6021 7.06866 10.3084 7.06286C10.0181 7.05705 9.78285 6.86279 9.79239 6.63683Z" fill="#3BB77E"/>
<path d="M1.48451 7.98408C1.78154 7.9881 2.00445 8.17164 1.9994 8.40698C1.99434 8.64187 1.76189 8.81916 1.46542 8.81514C1.16783 8.81112 0.947724 8.62937 0.952216 8.39135C0.955585 8.15467 1.18411 7.98006 1.48451 7.98408Z" fill="#3BB77E"/>
<path d="M6.43068 8.40397C6.42731 8.63306 6.1898 8.8157 5.89614 8.81526C5.59911 8.81481 5.37564 8.63395 5.37844 8.39638C5.38125 8.16014 5.60922 7.98241 5.90737 7.98464C6.20103 7.98643 6.43405 8.17309 6.43068 8.40397Z" fill="#3BB77E"/>
<path d="M8.6424 8.41056C8.63398 8.63697 8.38805 8.81873 8.09607 8.81426C7.80241 8.8098 7.57669 8.62179 7.58455 8.38868C7.59241 8.15468 7.82824 7.97828 8.12471 7.98454C8.41443 7.99079 8.65082 8.18505 8.6424 8.41056Z" fill="#3BB77E"/>
<path d="M10.3163 8.81426C10.026 8.81203 9.78677 8.62045 9.7907 8.39315C9.79463 8.1645 10.0372 7.98141 10.3309 7.98454C10.6223 7.98766 10.862 8.17924 10.8575 8.40476C10.8536 8.63027 10.6065 8.81694 10.3163 8.81426Z" fill="#3BB77E"/>
<path d="M10.3303 3.55679C10.0389 3.55947 9.79576 3.37415 9.79239 3.14684C9.78902 2.92222 10.0327 2.72573 10.3179 2.72305C10.6004 2.72037 10.8547 2.91552 10.8587 3.13702C10.862 3.35986 10.6178 3.55411 10.3303 3.55679Z" fill="#3BB77E"/>
</g>
<defs>
<clipPath id="clip0_950_2318">
<rect width="20.2929" height="16.0769" fill="white" transform="translate(0.88147 0.961426)"/>
</clipPath>
</defs>
</svg>
