<svg width="22" height="22" viewBox="0 0 22 22" fill="none" xmlns="http://www.w3.org/2000/svg">
<g clip-path="url(#clip0_950_2343)">
<path d="M10.8777 0.0380465C11.3627 0.127109 11.7477 0.364609 12.1015 0.648924C12.3924 0.882428 12.7104 0.916682 13.0828 0.783089C14.1575 0.397151 15.2256 0.781376 15.6788 1.70169C15.8776 2.10532 16.1267 2.2452 16.6343 2.23778C17.7362 2.22122 18.6208 2.95541 18.6181 3.90884C18.6168 4.35016 18.8248 4.62705 19.3019 4.79433C20.2991 5.1443 20.7556 6.09258 20.3442 6.95523C20.1494 7.36401 20.2216 7.68772 20.5906 7.99772C21.3725 8.65484 21.3838 9.69334 20.6079 10.3539C20.2256 10.6787 20.154 11.0104 20.3528 11.4346C20.7477 12.2784 20.2951 13.217 19.3205 13.5658C18.8374 13.7388 18.6208 14.01 18.6201 14.4639C18.6194 15.1638 18.2139 15.6634 17.4897 15.9711C17.4162 16.0025 17.34 16.0288 17.2472 16.0636C17.2956 16.1418 17.3373 16.2155 17.385 16.2862C18.0118 17.2243 18.6413 18.1611 19.2648 19.1008C19.3629 19.2487 19.4516 19.4034 19.5199 19.5627C19.6471 19.8602 19.4417 20.1348 19.076 20.1176C18.5167 20.0914 17.9582 20.0354 17.4016 19.9721C16.7522 19.8984 16.7542 19.8893 16.4971 20.4168C16.3149 20.7908 16.1413 21.1687 15.9399 21.5352C15.8544 21.6899 15.708 21.8201 15.5894 21.9611C15.4403 21.9611 15.2919 21.9611 15.1428 21.9611C14.9593 21.7271 14.7592 21.5015 14.5955 21.2578C13.8322 20.1245 13.0788 18.9867 12.3215 17.8505C12.2784 17.786 12.2294 17.7238 12.1737 17.6479C11.099 18.5448 10.0382 18.5322 8.98067 17.641C8.92303 17.7244 8.87665 17.79 8.83159 17.8568C8.05967 19.0101 7.29503 20.1673 6.51052 21.3143C6.35018 21.5489 6.11694 21.7465 5.9175 21.9611C5.80155 21.9611 5.68626 21.9611 5.5703 21.9611C5.45501 21.8258 5.30858 21.7031 5.23105 21.5535C4.94945 21.0151 4.6917 20.4676 4.41739 19.9087C3.83762 19.9709 3.25785 20.0354 2.67742 20.0942C2.48924 20.1131 2.29841 20.1285 2.10957 20.1262C1.70605 20.1211 1.49005 19.8408 1.65636 19.5239C1.79219 19.2647 1.95387 19.0152 2.11819 18.7686C2.71519 17.8734 3.31815 16.9805 3.93171 16.0687C3.86081 16.0419 3.79853 16.0168 3.73492 15.9945C3.01534 15.7382 2.5343 15.1444 2.54954 14.4742C2.55948 14.0214 2.3448 13.7417 1.85978 13.5698C0.870524 13.2193 0.409359 12.2756 0.820167 11.4266C1.02292 11.0081 0.947385 10.6822 0.57832 10.3642C-0.184326 9.70761 -0.181013 8.67825 0.587596 8.02227C0.959312 7.70484 1.04015 7.38056 0.836732 6.96151C0.419298 6.10286 0.875162 5.15115 1.87038 4.79547C2.34413 4.62648 2.55948 4.35758 2.5502 3.91055C2.53098 2.98053 3.39302 2.22236 4.46907 2.22864C4.99517 2.2315 5.31587 2.04937 5.51531 1.63204C5.92214 0.779092 7.01409 0.38402 8.00003 0.737416C8.48572 0.911544 8.87665 0.849885 9.22981 0.520468C9.51406 0.255565 9.89505 0.137956 10.2833 0.0374756C10.4808 0.0380465 10.6796 0.0380465 10.8777 0.0380465ZM4.82223 3.12897C3.90587 3.14039 3.61896 3.39959 3.59378 4.04643C3.56463 4.79376 3.12467 5.30358 2.33353 5.59189C1.78159 5.79285 1.58944 6.17594 1.81406 6.64637C2.16258 7.37714 2.01416 8.03426 1.37476 8.58976C0.950035 8.95914 0.950698 9.3839 1.37741 9.75442C2.00754 10.3014 2.15728 10.9613 1.8134 11.679C1.58347 12.1591 1.77496 12.5508 2.33751 12.7494C3.14521 13.0343 3.58782 13.6052 3.58915 14.3628C3.59047 14.8949 3.94363 15.1998 4.5572 15.1975C5.41062 15.1941 6.09044 15.5823 6.4171 16.2611C6.6669 16.7807 7.10487 16.9319 7.71578 16.7213C8.51885 16.4444 9.23975 16.5683 9.86325 17.0821C10.3416 17.476 10.8174 17.48 11.2958 17.0884C11.9219 16.5768 12.6442 16.4581 13.4459 16.7276C14.0581 16.9337 14.4875 16.7824 14.7419 16.2583C15.0606 15.6023 15.7438 15.2066 16.5614 15.2038C17.2373 15.2015 17.5613 14.9172 17.5699 14.3389C17.5805 13.6007 17.9893 13.0783 18.7619 12.7757C19.4185 12.5188 19.5729 12.1979 19.3132 11.615C19.0104 10.9356 19.1588 10.3236 19.7392 9.79895C20.2295 9.35593 20.2309 8.9894 19.7385 8.54009C19.1608 8.01199 19.019 7.39941 19.3224 6.72173C19.5822 6.14054 19.4285 5.82368 18.7606 5.56677C17.9913 5.27047 17.5937 4.74865 17.5758 4.02245C17.5613 3.42299 17.2518 3.15523 16.5607 3.14096C15.7106 3.12326 15.0997 2.77386 14.7552 2.1019C14.4742 1.55553 14.0787 1.41338 13.4247 1.62804C12.6402 1.88552 11.9299 1.76734 11.317 1.27065C10.8041 0.854453 10.3668 0.856165 9.84735 1.27293C9.24041 1.75992 8.53872 1.88381 7.76084 1.62861C7.09162 1.40938 6.69737 1.54925 6.4118 2.10761C6.07387 2.7653 5.47356 3.09586 4.82223 3.12897ZM16.1327 16.2354C16.1029 16.2252 16.0724 16.2149 16.0426 16.2052C15.9187 16.3747 15.7696 16.534 15.6749 16.715C15.319 17.395 14.5988 17.7792 13.7348 17.7312C13.6573 17.7272 13.5791 17.7307 13.4664 17.7307C14.0846 18.6538 14.6883 19.5553 15.3104 20.4842C15.4761 20.1353 15.6212 19.8253 15.7696 19.5165C16.0313 18.9713 16.1897 18.8936 16.8682 18.9735C16.9093 18.9781 16.949 18.9878 16.9901 18.9924C17.3267 19.0295 17.6633 19.066 18.0509 19.1088C17.3903 18.12 16.7615 17.178 16.1327 16.2354ZM5.07004 16.1755C4.39685 17.1831 3.76606 18.1274 3.1081 19.1123C3.50632 19.0666 3.84093 19.0335 4.17422 18.9884C4.98258 18.8782 5.11112 18.9387 5.42718 19.5998C5.56235 19.8824 5.69951 20.1645 5.85323 20.4825C6.48137 19.5433 7.083 18.6435 7.70054 17.7204C7.62169 17.7204 7.59718 17.7192 7.57332 17.7204C6.48733 17.7769 5.88636 17.4583 5.42519 16.5997C5.34833 16.4587 5.21118 16.3416 5.07004 16.1755Z" fill="#3BB77E"/>
<path d="M10.5741 15.5707C6.54753 15.5958 3.20806 12.7315 3.17824 9.22667C3.14842 5.69615 6.43158 2.80447 10.4992 2.77935C14.6285 2.75366 17.9534 5.58482 17.9813 9.15131C18.0091 12.683 14.7074 15.5438 10.5741 15.5707ZM10.5986 3.68881C7.10345 3.68196 4.24303 6.13404 4.23177 9.14617C4.2205 12.1823 7.05707 14.6486 10.5622 14.6498C14.0839 14.6515 16.9185 12.2154 16.9291 9.17758C16.939 6.16658 14.0892 3.69566 10.5986 3.68881Z" fill="#3BB77E"/>
<path d="M7.45531 12.3113C7.54476 11.8626 7.62493 11.2797 7.78462 10.7139C7.90454 10.2903 7.8416 9.99115 7.4235 9.70512C6.95969 9.38769 6.5608 8.99947 6.13542 8.64037C6.06452 8.58099 5.9976 8.51705 5.93797 8.44854C5.69413 8.16594 5.81274 7.81939 6.21095 7.75088C6.83313 7.64355 7.46259 7.52994 8.09338 7.50368C8.71158 7.47742 9.07667 7.27874 9.28672 6.76663C9.46429 6.33331 9.74854 5.93195 9.98575 5.5169C10.0116 5.47237 10.0407 5.42898 10.0692 5.38559C10.1812 5.2126 10.3064 5.06017 10.5728 5.05789C10.8511 5.0556 10.9816 5.21489 11.0949 5.3953C11.1897 5.54545 11.2818 5.69674 11.3692 5.85031C11.6277 6.30419 11.8861 6.75807 12.1379 7.2148C12.2021 7.33126 12.273 7.39863 12.4407 7.41747C13.2013 7.50368 13.96 7.60816 14.7193 7.70578C14.7518 7.70978 14.7849 7.71435 14.8174 7.71834C15.0559 7.74575 15.2461 7.83538 15.321 8.04433C15.3952 8.25157 15.3031 8.416 15.1281 8.56158C14.5683 9.0263 14.019 9.50016 13.4538 9.96032C13.31 10.0768 13.2716 10.1858 13.3073 10.3497C13.4412 10.9657 13.5598 11.5846 13.683 12.2023C13.6969 12.2725 13.7109 12.3433 13.7175 12.4141C13.7533 12.8086 13.3663 13.0547 12.9542 12.8811C12.4201 12.6562 11.9 12.4084 11.3726 12.172C11.1095 12.0544 10.8438 11.8489 10.5801 11.85C10.3164 11.8512 10.0547 12.0613 9.79095 12.1795C9.26353 12.4152 8.74339 12.6647 8.20603 12.8817C7.77534 13.0558 7.44537 12.8503 7.45531 12.3113ZM7.55138 8.48679C7.90256 8.80422 8.21331 9.13421 8.58238 9.40425C8.94614 9.6703 9.06077 9.96374 8.93422 10.3457C8.92494 10.3731 8.91831 10.4011 8.91235 10.429C8.83483 10.8133 8.75797 11.1975 8.67382 11.616C8.79375 11.5692 8.87591 11.5406 8.95277 11.5058C9.36954 11.318 9.79095 11.1358 10.1998 10.936C10.4549 10.8116 10.6861 10.8007 10.9452 10.928C11.3037 11.1044 11.674 11.2614 12.0398 11.4264C12.1736 11.4869 12.3081 11.5463 12.4811 11.6228C12.4632 11.5081 12.4546 11.4384 12.4407 11.3693C12.3578 10.948 12.2763 10.5261 12.1882 10.1059C12.1432 9.89124 12.2048 9.72111 12.3956 9.56867C12.7587 9.27751 13.1072 8.97264 13.4611 8.67291C13.522 8.62153 13.5777 8.56558 13.6572 8.49193C13.0496 8.41429 12.4884 8.33093 11.9238 8.27555C11.6509 8.24872 11.4859 8.13454 11.3726 7.93529C11.1426 7.5328 10.9121 7.13087 10.6802 6.72895C10.6536 6.68271 10.6165 6.64046 10.5715 6.57994C10.5311 6.64788 10.5039 6.69127 10.4787 6.73523C10.2521 7.13087 10.0242 7.52652 9.7989 7.92273C9.68162 8.1294 9.51266 8.24872 9.23039 8.27612C8.66653 8.3315 8.1073 8.41543 7.55138 8.48679Z" fill="#3BB77E"/>
</g>
<defs>
<clipPath id="clip0_950_2343">
<rect width="21.1752" height="21.9231" fill="white" transform="translate(0.00836182 0.0384521)"/>
</clipPath>
</defs>
</svg>
